<svg width="122" height="17" viewBox="0 0 122 17" fill="none" xmlns="http://www.w3.org/2000/svg">
<path fill-rule="evenodd" clip-rule="evenodd" d="M34.8108 13.5982L29.4823 16.3996L30.4999 10.4662L26.1891 6.26408L32.1465 5.39841L34.8108 0L37.4751 5.39841L43.4326 6.26408L39.1217 10.4662L40.1394 16.3996L34.8108 13.5982Z" fill="#EEA427"/>
<path fill-rule="evenodd" clip-rule="evenodd" d="M8.62171 13.5982L3.29316 16.3996L4.31082 10.4662L-6.08487e-05 6.26408L5.95743 5.39841L8.62171 0L11.286 5.39841L17.2435 6.26408L12.9326 10.4662L13.9503 16.3996L8.62171 13.5982Z" fill="#EEA427"/>
<path fill-rule="evenodd" clip-rule="evenodd" d="M60.9999 13.5982L55.6714 16.3996L56.6891 10.4662L52.3782 6.26408L58.3357 5.39841L60.9999 0L63.6642 5.39841L69.6217 6.26408L65.3108 10.4662L66.3285 16.3996L60.9999 13.5982Z" fill="#EEA427"/>
<path fill-rule="evenodd" clip-rule="evenodd" d="M87.1891 13.5982L81.8605 16.3996L82.8782 10.4662L78.5673 6.26408L84.5248 5.39841L87.1891 0L89.8533 5.39841L95.8108 6.26408L91.4999 10.4662L92.5176 16.3996L87.1891 13.5982Z" fill="#EEA427"/>
<path fill-rule="evenodd" clip-rule="evenodd" d="M113.378 13.5982L108.05 16.3996L109.067 10.4662L104.756 6.26408L110.714 5.39841L113.378 0L116.042 5.39841L122 6.26408L117.689 10.4662L118.707 16.3996L113.378 13.5982Z" fill="#DDDDDD"/>
</svg>
