<svg width="24" height="19" viewBox="0 0 24 19" fill="none" xmlns="http://www.w3.org/2000/svg">
<path d="M1 -1.40667e-05C0.447715 -1.40667e-05 0 0.447701 0 0.999986C0 1.55227 0.447715 1.99999 1 1.99999V-1.40667e-05ZM23 1.99999C23.5523 1.99999 24 1.55227 24 0.999986C24 0.447701 23.5523 -1.40667e-05 23 -1.40667e-05V1.99999ZM1 8.30768C0.447715 8.30768 0 8.75539 0 9.30768C0 9.85996 0.447715 10.3077 1 10.3077V8.30768ZM23 10.3077C23.5523 10.3077 24 9.85996 24 9.30768C24 8.75539 23.5523 8.30768 23 8.30768V10.3077ZM1 16.6154C0.447715 16.6154 0 17.0631 0 17.6154C0 18.1677 0.447715 18.6154 1 18.6154V16.6154ZM10.625 18.6154C11.1773 18.6154 11.625 18.1677 11.625 17.6154C11.625 17.0631 11.1773 16.6154 10.625 16.6154V18.6154ZM1 1.99999H23V-1.40667e-05H1V1.99999ZM1 10.3077H23V8.30768H1V10.3077ZM1 18.6154H10.625V16.6154H1V18.6154Z" fill="#4A4543"/>
</svg>
